<mxfile host="app.diagrams.net" modified="2020-10-29T07:37:48.785Z" agent="5.0 (Macintosh; Intel Mac OS X 10_14_5) AppleWebKit/537.36 (KHTML, like Gecko) Chrome/86.0.4240.111 Safari/537.36" etag="ZpQJ672_oXKHSMSeTN57" version="13.8.6" type="github">
  <diagram name="Page-1" id="74e2e168-ea6b-b213-b513-2b3c1d86103e">
    <mxGraphModel dx="983" dy="492" grid="1" gridSize="10" guides="1" tooltips="1" connect="1" arrows="1" fold="1" page="1" pageScale="1" pageWidth="1100" pageHeight="850" background="#ffffff" math="0" shadow="0">
      <root>
        <mxCell id="0" />
        <mxCell id="1" parent="0" />
        <mxCell id="77e6c97f196da883-1" value="Pool" style="swimlane;html=1;childLayout=stackLayout;startSize=20;rounded=0;shadow=0;labelBackgroundColor=none;strokeWidth=1;fontFamily=Verdana;fontSize=8;align=center;" parent="1" vertex="1">
          <mxGeometry x="70" y="40" width="580.01" height="750" as="geometry" />
        </mxCell>
        <mxCell id="77e6c97f196da883-2" value="Client" style="swimlane;html=1;startSize=20;" parent="77e6c97f196da883-1" vertex="1">
          <mxGeometry y="20" width="160" height="730" as="geometry" />
        </mxCell>
        <mxCell id="77e6c97f196da883-9" value="Order Code" style="rounded=1;whiteSpace=wrap;html=1;shadow=0;labelBackgroundColor=none;strokeWidth=1;fontFamily=Verdana;fontSize=8;align=center;" parent="77e6c97f196da883-2" vertex="1">
          <mxGeometry x="30" y="380" width="100" height="60" as="geometry" />
        </mxCell>
        <mxCell id="KoxVc82YLb97do5Z55c8-21" value="&lt;span style=&quot;font-family: &amp;#34;verdana&amp;#34; ; font-size: 8px&quot;&gt;Request Create Order&lt;/span&gt;" style="strokeWidth=2;html=1;shape=mxgraph.flowchart.start_2;whiteSpace=wrap;" vertex="1" parent="77e6c97f196da883-2">
          <mxGeometry x="42.5" y="60" width="75" height="75" as="geometry" />
        </mxCell>
        <mxCell id="KoxVc82YLb97do5Z55c8-30" value="" style="rhombus;whiteSpace=wrap;html=1;rounded=0;shadow=0;labelBackgroundColor=none;strokeWidth=1;fontFamily=Verdana;fontSize=8;align=center;" vertex="1" parent="77e6c97f196da883-2">
          <mxGeometry x="30" y="510" width="80" height="60" as="geometry" />
        </mxCell>
        <mxCell id="KoxVc82YLb97do5Z55c8-70" value="" style="endArrow=classic;html=1;entryX=0;entryY=0.5;entryDx=0;entryDy=0;" edge="1" parent="77e6c97f196da883-2" target="KoxVc82YLb97do5Z55c8-69">
          <mxGeometry width="50" height="50" relative="1" as="geometry">
            <mxPoint x="110" y="540" as="sourcePoint" />
            <mxPoint x="160" y="490" as="targetPoint" />
          </mxGeometry>
        </mxCell>
        <mxCell id="KoxVc82YLb97do5Z55c8-78" value="Order Code" style="edgeLabel;html=1;align=center;verticalAlign=middle;resizable=0;points=[];" vertex="1" connectable="0" parent="KoxVc82YLb97do5Z55c8-70">
          <mxGeometry x="-0.144" y="-2" relative="1" as="geometry">
            <mxPoint x="-178.62" y="-2" as="offset" />
          </mxGeometry>
        </mxCell>
        <mxCell id="KoxVc82YLb97do5Z55c8-75" style="edgeStyle=orthogonalEdgeStyle;rounded=0;orthogonalLoop=1;jettySize=auto;html=1;" edge="1" parent="77e6c97f196da883-2" source="77e6c97f196da883-9" target="KoxVc82YLb97do5Z55c8-30">
          <mxGeometry relative="1" as="geometry">
            <mxPoint x="80" y="490" as="targetPoint" />
          </mxGeometry>
        </mxCell>
        <mxCell id="77e6c97f196da883-26" style="edgeStyle=orthogonalEdgeStyle;rounded=1;html=1;labelBackgroundColor=none;startArrow=none;startFill=0;startSize=5;endArrow=classicThin;endFill=1;endSize=5;jettySize=auto;orthogonalLoop=1;strokeWidth=1;fontFamily=Verdana;fontSize=8" parent="77e6c97f196da883-1" target="77e6c97f196da883-11" edge="1">
          <mxGeometry relative="1" as="geometry">
            <mxPoint x="120" y="115" as="sourcePoint" />
          </mxGeometry>
        </mxCell>
        <mxCell id="77e6c97f196da883-3" value="APP" style="swimlane;html=1;startSize=20;" parent="77e6c97f196da883-1" vertex="1">
          <mxGeometry x="160" y="20" width="233.325" height="730" as="geometry" />
        </mxCell>
        <mxCell id="77e6c97f196da883-11" value="Create Order" style="rounded=1;whiteSpace=wrap;html=1;shadow=0;labelBackgroundColor=none;strokeWidth=1;fontFamily=Verdana;fontSize=8;align=center;" parent="77e6c97f196da883-3" vertex="1">
          <mxGeometry x="30" y="65" width="100" height="60" as="geometry" />
        </mxCell>
        <mxCell id="KoxVc82YLb97do5Z55c8-63" value="OrderInfo" style="whiteSpace=wrap;html=1;rounded=0;shadow=0;fontFamily=Verdana;fontSize=8;strokeWidth=1;" vertex="1" parent="77e6c97f196da883-3">
          <mxGeometry x="44.99499999999999" y="381.25" width="120" height="60" as="geometry" />
        </mxCell>
        <mxCell id="KoxVc82YLb97do5Z55c8-52" value="" style="endArrow=classic;html=1;exitX=0.998;exitY=0.602;exitDx=0;exitDy=0;entryX=0;entryY=0.5;entryDx=0;entryDy=0;exitPerimeter=0;" edge="1" parent="77e6c97f196da883-1" source="77e6c97f196da883-11" target="KoxVc82YLb97do5Z55c8-2">
          <mxGeometry width="50" height="50" relative="1" as="geometry">
            <mxPoint x="350" y="120" as="sourcePoint" />
            <mxPoint x="400" y="70" as="targetPoint" />
          </mxGeometry>
        </mxCell>
        <mxCell id="KoxVc82YLb97do5Z55c8-66" value="" style="endArrow=classic;html=1;exitX=0;exitY=0.5;exitDx=0;exitDy=0;" edge="1" parent="77e6c97f196da883-1" source="KoxVc82YLb97do5Z55c8-63">
          <mxGeometry width="50" height="50" relative="1" as="geometry">
            <mxPoint x="160" y="500" as="sourcePoint" />
            <mxPoint x="130" y="431" as="targetPoint" />
          </mxGeometry>
        </mxCell>
        <mxCell id="77e6c97f196da883-4" value="Kiotviet Pos" style="swimlane;html=1;startSize=20;" parent="77e6c97f196da883-1" vertex="1">
          <mxGeometry x="393.325" y="20" width="186.685" height="730" as="geometry" />
        </mxCell>
        <mxCell id="KoxVc82YLb97do5Z55c8-2" value="Create Order&amp;nbsp;" style="rounded=1;whiteSpace=wrap;html=1;shadow=0;labelBackgroundColor=none;strokeWidth=1;fontFamily=Verdana;fontSize=8;align=center;" vertex="1" parent="77e6c97f196da883-4">
          <mxGeometry x="40" y="70" width="100" height="60" as="geometry" />
        </mxCell>
        <mxCell id="KoxVc82YLb97do5Z55c8-61" value="Create Invoince" style="rounded=1;whiteSpace=wrap;html=1;shadow=0;labelBackgroundColor=none;strokeWidth=1;fontFamily=Verdana;fontSize=8;align=center;" vertex="1" parent="77e6c97f196da883-4">
          <mxGeometry x="18.939999999999998" y="270" width="66.67" height="40" as="geometry" />
        </mxCell>
        <mxCell id="KoxVc82YLb97do5Z55c8-65" value="" style="endArrow=classic;html=1;exitX=0.5;exitY=1;exitDx=0;exitDy=0;entryX=0.4;entryY=0;entryDx=0;entryDy=0;entryPerimeter=0;" edge="1" parent="77e6c97f196da883-4" source="KoxVc82YLb97do5Z55c8-46" target="KoxVc82YLb97do5Z55c8-61">
          <mxGeometry width="50" height="50" relative="1" as="geometry">
            <mxPoint x="73.35500000000008" y="350" as="sourcePoint" />
            <mxPoint x="123.35500000000008" y="300" as="targetPoint" />
          </mxGeometry>
        </mxCell>
        <mxCell id="KoxVc82YLb97do5Z55c8-67" value="" style="verticalLabelPosition=bottom;verticalAlign=top;html=1;shape=mxgraph.flowchart.or;" vertex="1" parent="77e6c97f196da883-4">
          <mxGeometry x="32.28" y="350" width="40" height="40" as="geometry" />
        </mxCell>
        <mxCell id="KoxVc82YLb97do5Z55c8-68" value="" style="endArrow=classic;html=1;" edge="1" parent="77e6c97f196da883-4" target="KoxVc82YLb97do5Z55c8-67">
          <mxGeometry width="50" height="50" relative="1" as="geometry">
            <mxPoint x="52.28500000000001" y="310" as="sourcePoint" />
            <mxPoint x="95.61499999999994" y="280" as="targetPoint" />
          </mxGeometry>
        </mxCell>
        <mxCell id="KoxVc82YLb97do5Z55c8-69" value="Create Invoince" style="rounded=1;whiteSpace=wrap;html=1;shadow=0;labelBackgroundColor=none;strokeWidth=1;fontFamily=Verdana;fontSize=8;align=center;" vertex="1" parent="77e6c97f196da883-4">
          <mxGeometry x="40.000000000000014" y="520" width="66.67" height="40" as="geometry" />
        </mxCell>
        <mxCell id="KoxVc82YLb97do5Z55c8-71" value="" style="rhombus;whiteSpace=wrap;html=1;rounded=0;shadow=0;labelBackgroundColor=none;strokeWidth=1;fontFamily=Verdana;fontSize=8;align=center;" vertex="1" parent="77e6c97f196da883-4">
          <mxGeometry x="110.00999999999999" y="390" width="53.33" height="40" as="geometry" />
        </mxCell>
        <mxCell id="KoxVc82YLb97do5Z55c8-72" value="" style="endArrow=classic;html=1;exitX=0.5;exitY=1;exitDx=0;exitDy=0;entryX=0.5;entryY=0;entryDx=0;entryDy=0;" edge="1" parent="77e6c97f196da883-4" source="KoxVc82YLb97do5Z55c8-47" target="KoxVc82YLb97do5Z55c8-71">
          <mxGeometry width="50" height="50" relative="1" as="geometry">
            <mxPoint x="136.685" y="360" as="sourcePoint" />
            <mxPoint x="186.685" y="310" as="targetPoint" />
          </mxGeometry>
        </mxCell>
        <mxCell id="KoxVc82YLb97do5Z55c8-59" value="" style="group" vertex="1" connectable="0" parent="77e6c97f196da883-4">
          <mxGeometry x="20.92" y="130" width="138.16" height="87.5" as="geometry" />
        </mxCell>
        <mxCell id="KoxVc82YLb97do5Z55c8-43" value="" style="strokeWidth=2;html=1;shape=mxgraph.flowchart.annotation_2;align=left;labelPosition=right;pointerEvents=1;rotation=90;" vertex="1" parent="KoxVc82YLb97do5Z55c8-59">
          <mxGeometry x="46.05333333333333" y="-23.026315789473685" width="46.05333333333333" height="92.10526315789474" as="geometry" />
        </mxCell>
        <mxCell id="KoxVc82YLb97do5Z55c8-46" value="delivery by partner" style="rounded=1;whiteSpace=wrap;html=1;absoluteArcSize=1;arcSize=14;strokeWidth=2;" vertex="1" parent="KoxVc82YLb97do5Z55c8-59">
          <mxGeometry y="41.44736842105263" width="46.05333333333333" height="46.05263157894737" as="geometry" />
        </mxCell>
        <mxCell id="KoxVc82YLb97do5Z55c8-47" value="receive product at shop" style="rounded=1;whiteSpace=wrap;html=1;absoluteArcSize=1;arcSize=14;strokeWidth=2;" vertex="1" parent="KoxVc82YLb97do5Z55c8-59">
          <mxGeometry x="92.10666666666665" y="41.44736842105263" width="46.05333333333333" height="46.05263157894737" as="geometry" />
        </mxCell>
        <mxCell id="KoxVc82YLb97do5Z55c8-76" value="" style="verticalLabelPosition=bottom;verticalAlign=top;html=1;shape=mxgraph.flowchart.or;" vertex="1" parent="77e6c97f196da883-4">
          <mxGeometry x="53.339999999999975" y="600" width="40" height="40" as="geometry" />
        </mxCell>
        <mxCell id="KoxVc82YLb97do5Z55c8-77" value="" style="endArrow=classic;html=1;" edge="1" parent="77e6c97f196da883-4" target="KoxVc82YLb97do5Z55c8-76">
          <mxGeometry width="50" height="50" relative="1" as="geometry">
            <mxPoint x="73.34500000000008" y="559.9999999999999" as="sourcePoint" />
            <mxPoint x="-346.65000000000003" y="470" as="targetPoint" />
          </mxGeometry>
        </mxCell>
        <mxCell id="KoxVc82YLb97do5Z55c8-73" value="" style="endArrow=classic;html=1;entryX=1;entryY=0.5;entryDx=0;entryDy=0;exitX=0;exitY=0.5;exitDx=0;exitDy=0;" edge="1" parent="77e6c97f196da883-1" source="KoxVc82YLb97do5Z55c8-71" target="KoxVc82YLb97do5Z55c8-63">
          <mxGeometry width="50" height="50" relative="1" as="geometry">
            <mxPoint x="453.3399999999999" y="435" as="sourcePoint" />
            <mxPoint x="503.3399999999999" y="385" as="targetPoint" />
          </mxGeometry>
        </mxCell>
      </root>
    </mxGraphModel>
  </diagram>
</mxfile>
